# Blender v2.79 (sub 0) OBJ File: 'enemy2.blend'
# www.blender.org
mtllib enemy2.mtl
o Cube
v 0.035688 -0.035688 -0.035688
v 0.035688 -0.035688 0.035688
v 0.035688 0.035688 -0.035688
v 0.035688 0.035688 0.035688
v 0.035688 -0.035688 0.000000
v 0.035688 0.000000 -0.035688
v 0.035688 0.000000 0.035688
v 0.035688 0.035688 0.000000
v 0.004813 -0.000000 0.058742
v 0.035688 0.000000 0.000000
v 0.010822 0.000000 0.035688
v 0.035688 -0.035688 0.017844
v 0.035688 0.017844 -0.035688
v 0.035688 0.017844 0.035688
v 0.035688 0.035688 0.017844
v 0.035688 -0.035688 -0.017844
v 0.017844 -0.035688 -0.035688
v 0.035688 -0.017844 -0.035688
v 0.017844 -0.035688 0.035688
v 0.035688 -0.017844 0.035688
v 0.035688 0.035688 -0.017844
v 0.017844 0.035688 -0.035688
v 0.017844 0.035688 0.035688
v 0.006552 -0.005371 -0.035688
v 0.017844 0.000000 0.035688
v 0.035688 0.000000 0.017844
v 0.035688 0.000000 -0.017844
v 0.035688 -0.017844 0.000000
v 0.035688 0.017844 0.000000
v 0.017844 0.035688 0.000000
v 0.017844 -0.035688 -0.000000
v 0.017844 -0.035688 0.017844
v 0.017844 -0.035688 -0.017844
v 0.017844 0.035688 -0.017844
v 0.017844 0.035688 0.017844
v 0.035688 0.017844 -0.017844
v 0.035688 -0.017844 -0.017844
v 0.035688 -0.017844 0.017844
v 0.017844 0.017844 0.035688
v 0.017844 -0.017844 0.035688
v 0.006552 -0.012473 -0.035688
v 0.017844 0.017844 -0.035688
v 0.001713 -0.010394 -0.067132
v 0.035688 0.017844 0.017844
v 0.006090 0.073080 0.000000
v 0.001713 -0.007450 -0.067132
v 0.017844 -0.059729 -0.017844
v 0.003771 0.073080 -0.003300
v 0.003771 0.073080 0.003300
v 0.017844 -0.059729 0.017844
v 0.017844 -0.059729 0.035688
v 0.010822 0.010822 0.035688
v 0.010822 -0.010822 0.035688
v 0.017844 -0.059729 -0.035688
v 0.035688 -0.059729 -0.017844
v 0.035688 -0.059729 -0.035688
v 0.004813 0.004813 0.058742
v 0.004813 -0.004813 0.058742
v 0.035688 -0.059729 0.035688
v 0.035688 -0.059729 0.017844
v 0.020491 0.015196 0.037696
v 0.020491 0.002647 0.037696
v 0.035688 0.000000 0.035688
v 0.035688 0.017844 0.035688
v 0.033040 0.015196 0.037696
v 0.017844 0.000000 0.035688
v 0.017844 0.017844 0.035688
v 0.033040 0.002647 0.037696
v -0.035688 -0.035688 -0.035688
v -0.035688 -0.035688 0.035688
v -0.035688 0.035688 -0.035688
v -0.035688 0.035688 0.035688
v -0.035688 -0.035688 0.000000
v 0.000000 -0.035688 -0.035688
v -0.035688 0.000000 -0.035688
v 0.000000 -0.035688 0.035688
v -0.035688 0.000000 0.035688
v -0.035688 0.035688 0.000000
v 0.000000 0.035688 -0.035688
v 0.000000 0.035688 0.035688
v 0.000000 -0.002839 -0.035688
v -0.004813 -0.000000 0.058742
v -0.035688 0.000000 0.000000
v -0.010822 0.000000 0.035688
v 0.000000 -0.035688 -0.000000
v -0.035688 -0.035688 0.017844
v -0.035688 0.017844 -0.035688
v -0.035688 0.017844 0.035688
v -0.035688 0.035688 0.017844
v -0.035688 -0.035688 -0.017844
v -0.017844 -0.035688 -0.035688
v -0.035688 -0.017844 -0.035688
v -0.017844 -0.035688 0.035688
v -0.035688 -0.017844 0.035688
v -0.035688 0.035688 -0.017844
v -0.017844 0.035688 -0.035688
v -0.017844 0.035688 0.035688
v -0.006552 -0.005371 -0.035688
v 0.000000 0.017844 -0.035688
v 0.000000 -0.015005 -0.035688
v -0.017844 0.000000 0.035688
v 0.000000 -0.017844 0.035688
v 0.000000 0.017844 0.035688
v -0.035688 0.000000 0.017844
v -0.035688 0.000000 -0.017844
v -0.035688 -0.017844 0.000000
v -0.035688 0.017844 0.000000
v 0.000000 0.035688 0.017844
v 0.000000 0.035688 -0.017844
v -0.017844 0.035688 0.000000
v -0.017844 -0.035688 -0.000000
v 0.000000 -0.035688 -0.017844
v 0.000000 -0.035688 0.017844
v -0.017844 -0.035688 0.017844
v -0.017844 -0.035688 -0.017844
v -0.017844 0.035688 -0.017844
v -0.017844 0.035688 0.017844
v -0.035688 0.017844 -0.017844
v -0.035688 -0.017844 -0.017844
v -0.035688 -0.017844 0.017844
v -0.017844 0.017844 0.035688
v -0.017844 -0.017844 0.035688
v -0.006552 -0.012473 -0.035688
v -0.017844 0.017844 -0.035688
v -0.001713 -0.010394 -0.067132
v -0.035688 0.017844 0.017844
v 0.000000 -0.010394 -0.067132
v 0.000000 -0.007450 -0.067132
v 0.000000 0.073080 0.000000
v 0.000000 0.073080 0.001939
v 0.000000 0.073080 -0.001939
v -0.006090 0.073080 0.000000
v -0.001713 -0.007450 -0.067132
v -0.017844 -0.059729 -0.017844
v -0.003771 0.073080 -0.003300
v -0.003771 0.073080 0.003300
v -0.017844 -0.059729 0.017844
v 0.000000 0.010822 0.035688
v -0.017844 -0.059729 0.035688
v 0.000000 -0.010822 0.035688
v -0.010822 0.010822 0.035688
v -0.010822 -0.010822 0.035688
v -0.017844 -0.059729 -0.035688
v -0.035688 -0.059729 -0.017844
v 0.000000 -0.000000 0.058742
v 0.000000 0.004813 0.058742
v -0.035688 -0.059729 -0.035688
v 0.000000 -0.004813 0.058742
v -0.004813 0.004813 0.058742
v -0.004813 -0.004813 0.058742
v -0.035688 -0.059729 0.035688
v -0.035688 -0.059729 0.017844
v -0.020491 0.015196 0.037696
v -0.020491 0.002647 0.037696
v -0.035688 0.000000 0.035688
v -0.035688 0.017844 0.035688
v -0.033040 0.015196 0.037696
v -0.017844 0.000000 0.035688
v -0.017844 0.017844 0.035688
v -0.033040 0.002647 0.037696
vt 0.540344 0.939254
vt 0.469984 0.896014
vt 0.525423 0.884129
vt 0.397718 0.305592
vt 0.367223 0.199936
vt 0.444699 0.198431
vt 0.399552 0.338777
vt 0.367390 0.462350
vt 0.367280 0.351851
vt 0.426762 0.961717
vt 0.367511 0.908540
vt 0.418723 0.907000
vt 0.509237 0.831829
vt 0.450423 0.805723
vt 0.490014 0.786207
vt 0.616089 0.787212
vt 0.535208 0.757612
vt 0.592099 0.726946
vt 0.657890 0.902986
vt 0.580739 0.865694
vt 0.637535 0.844942
vt 0.851302 0.117816
vt 0.780432 0.035318
vt 0.857252 0.040514
vt 0.779331 0.106792
vt 0.784541 0.183903
vt 0.778116 0.185567
vt 0.476263 0.580593
vt 0.367586 0.656798
vt 0.367515 0.563383
vt 0.407361 0.773695
vt 0.367510 0.720436
vt 0.417690 0.728675
vt 0.438411 0.669441
vt 0.496765 0.706685
vt 0.559357 0.407793
vt 0.572122 0.506031
vt 0.472961 0.464066
vt 0.432846 0.761860
vt 0.439575 0.777467
vt 0.556101 0.650328
vt 0.829283 0.591802
vt 0.920501 0.629546
vt 0.821919 0.620382
vt 0.829705 0.678826
vt 0.919892 0.637516
vt 0.927308 0.640622
vt 0.849230 0.262642
vt 0.929526 0.191149
vt 0.925930 0.263794
vt 0.848392 0.339324
vt 0.924926 0.340327
vt 0.775720 0.341020
vt 0.929216 0.043146
vt 0.928145 0.115346
vt 0.858719 0.190151
vt 0.560529 0.810658
vt 0.695048 0.823809
vt 0.673147 0.765916
vt 0.716127 0.882109
vt 0.651910 0.708430
vt 0.641888 0.653929
vt 0.439900 0.777211
vt 0.460755 0.749917
vt 0.414412 0.857659
vt 0.397939 0.888229
vt 0.396123 0.858847
vt 0.484229 0.951721
vt 0.409571 0.812478
vt 0.367483 0.770597
vt 0.449850 0.805710
vt 0.459826 0.845735
vt 0.821919 0.650204
vt 0.533684 0.344437
vt 0.525080 0.269426
vt 0.367217 0.123629
vt 0.442436 0.122196
vt 0.520700 0.194672
vt 0.517806 0.119302
vt 0.459322 0.847459
vt 0.415359 0.858215
vt 0.367484 0.813975
vt 0.394597 0.830478
vt 0.367548 0.831364
vt 0.460644 0.846024
vt 0.599135 0.922795
vt 0.784397 0.194436
vt 0.786788 0.189199
vt 0.778062 0.189072
vt 0.431886 0.762186
vt 0.432392 0.760837
vt 0.776781 0.272177
vt 0.431525 0.761156
vt 0.851319 0.397984
vt 0.836541 0.469158
vt 0.828420 0.466355
vt 0.933034 0.965932
vt 0.921572 0.911831
vt 0.933035 0.899722
vt 0.901568 0.500183
vt 0.830869 0.484997
vt 0.833894 0.477303
vt 0.565069 0.536884
vt 0.666769 0.584472
vt 0.825687 0.474514
vt 0.866842 0.900170
vt 0.878303 0.954270
vt 0.866840 0.966379
vt 0.878885 0.911608
vt 0.800460 0.549837
vt 0.863332 0.550463
vt 0.622697 0.489843
vt 0.619196 0.561532
vt 0.902374 0.436504
vt 0.920991 0.954493
vt 0.419402 0.905836
vt 0.469096 0.895198
vt 0.459954 0.845978
vt 0.269389 0.895256
vt 0.198523 0.939869
vt 0.212032 0.884935
vt 0.336784 0.305614
vt 0.289729 0.198447
vt 0.334988 0.338795
vt 0.261675 0.464210
vt 0.309551 0.960150
vt 0.317714 0.906550
vt 0.285541 0.805455
vt 0.226459 0.832356
vt 0.245554 0.786323
vt 0.200194 0.758227
vt 0.119488 0.788839
vt 0.143116 0.728028
vt 0.156055 0.867345
vt 0.078919 0.906121
vt 0.098588 0.847245
vt 0.707054 0.115592
vt 0.771746 0.183706
vt 0.296607 0.669381
vt 0.258596 0.580736
vt 0.327674 0.773838
vt 0.317348 0.728220
vt 0.274311 0.749642
vt 0.238186 0.706901
vt 0.162467 0.506561
vt 0.175053 0.408038
vt 0.302265 0.760505
vt 0.296336 0.776997
vt 0.178652 0.650888
vt 0.920501 0.728429
vt 0.829283 0.766173
vt 0.821919 0.737593
vt 0.829705 0.679149
vt 0.919892 0.720459
vt 0.821919 0.707771
vt 0.626607 0.186479
vt 0.704661 0.260413
vt 0.627962 0.259201
vt 0.703134 0.337084
vt 0.626606 0.335729
vt 0.631478 0.038556
vt 0.630323 0.110755
vt 0.697411 0.187665
vt 0.927308 0.717353
vt 0.175351 0.811763
vt 0.040282 0.826570
vt 0.061894 0.767906
vt 0.019693 0.885786
vt 0.083046 0.709932
vt 0.092968 0.655188
vt 0.296057 0.776872
vt 0.320050 0.858888
vt 0.337414 0.888684
vt 0.254830 0.950608
vt 0.325268 0.812744
vt 0.286119 0.805480
vt 0.274556 0.846478
vt 0.200724 0.344578
vt 0.209322 0.269497
vt 0.291985 0.122194
vt 0.213695 0.194700
vt 0.216587 0.119302
vt 0.274431 0.846593
vt 0.340291 0.830739
vt 0.272869 0.846494
vt 0.138751 0.925026
vt 0.771565 0.194238
vt 0.931713 0.782597
vt 0.821919 0.808980
vt 0.821919 0.766497
vt 0.778008 0.192580
vt 0.303137 0.760716
vt 0.769337 0.188930
vt 0.302272 0.759693
vt 0.303141 0.759696
vt 0.820248 0.463702
vt 0.787362 0.397984
vt 0.878304 0.844850
vt 0.866840 0.898950
vt 0.866841 0.832741
vt 0.749653 0.449303
vt 0.815237 0.479762
vt 0.749893 0.512470
vt 0.169631 0.537494
vt 0.067700 0.585610
vt 0.817456 0.471798
vt 0.921571 0.887290
vt 0.933034 0.833190
vt 0.933034 0.899399
vt 0.920991 0.844628
vt 0.111676 0.490402
vt 0.115246 0.562383
vt 0.878884 0.887512
vt 0.319121 0.859585
vt 0.317053 0.905286
vt 0.270255 0.894585
vt 0.367250 0.294478
vt 0.367296 0.963632
vt 0.926250 0.626069
vt 0.432689 0.761494
vt 0.432757 0.761641
vt 0.367398 0.888730
vt 0.822918 0.482781
vt 0.703489 0.038143
vt 0.926250 0.731906
vt 0.338738 0.859572
vt 0.931713 0.792879
vt 0.302188 0.759907
vt 0.273582 0.846501
vn 1.0000 0.0000 0.0000
vn 0.0000 0.0000 -1.0000
vn -0.0000 -0.0000 1.0000
vn 0.0000 1.0000 0.0000
vn -0.3151 0.3715 0.8733
vn 0.0000 -1.0000 0.0000
vn 0.3581 -0.9264 -0.1163
vn 0.0000 0.9894 -0.1451
vn 0.9884 -0.0000 -0.1521
vn 0.7924 0.2491 -0.5569
vn -1.0000 0.0000 0.0000
vn 0.9359 0.3522 0.0000
vn 0.0000 0.3625 -0.9320
vn 0.0000 -0.9677 0.2522
vn 0.6043 0.0000 0.7967
vn 0.9677 0.0000 0.2522
vn -0.6043 -0.0000 0.7967
vn -0.0000 -0.6043 0.7967
vn -0.0000 0.9677 0.2522
vn 0.0000 0.6043 0.7967
vn 0.0000 0.3625 0.9320
vn -0.3581 -0.9264 -0.1163
vn -0.3581 0.9264 -0.1163
vn -0.9884 -0.0000 -0.1521
vn -0.9359 0.3522 0.0000
vn -0.9677 0.0000 0.2522
vn 0.0000 -0.9894 -0.1451
vn 0.3581 0.9264 -0.1163
vn 0.7924 0.2491 0.5569
vn -0.3151 0.3715 -0.8733
vn 0.3151 0.3715 0.8733
vn -0.7924 0.2491 -0.5569
vn -0.7924 0.2491 0.5569
vn 0.3151 0.3715 -0.8733
usemtl Material
s off
f 15/1/1 14/2/1 44/3/1
f 24/4/2 99/5/2 42/6/2
f 41/7/2 74/8/2 100/9/2
f 23/10/3 103/11/3 39/12/3
f 26/13/1 20/14/1 38/15/1
f 27/16/1 28/17/1 37/18/1
f 21/19/1 29/20/1 36/21/1
f 35/22/4 80/23/4 23/24/4
f 108/25/5 49/26/5 130/27/5
f 33/28/6 85/29/6 112/30/6
f 19/31/6 113/32/6 32/33/6
f 31/34/6 113/32/6 85/29/6
f 5/35/6 32/33/6 31/34/6
f 1/36/2 54/37/2 17/38/2
f 33/28/6 74/8/6 17/38/6
f 19/31/3 59/39/3 2/40/3
f 16/41/6 31/34/6 33/28/6
f 100/42/7 43/43/7 41/44/7
f 81/45/8 46/46/8 128/47/8
f 34/48/4 8/49/4 21/50/4
f 22/51/4 21/50/4 3/52/4
f 79/53/4 34/48/4 22/51/4
f 35/22/4 4/54/4 15/55/4
f 30/56/4 15/55/4 8/49/4
f 43/43/2 128/47/2 46/46/2
f 36/21/1 10/57/1 27/16/1
f 13/58/1 27/16/1 6/59/1
f 3/60/1 36/21/1 13/58/1
f 37/18/1 5/35/1 16/41/1
f 18/61/1 16/41/1 1/62/1
f 6/59/1 37/18/1 18/61/1
f 38/15/1 2/63/1 12/64/1
f 28/17/1 12/64/1 5/35/1
f 10/57/1 38/15/1 28/17/1
f 25/65/3 52/66/3 11/67/3
f 4/68/3 39/12/3 14/2/3
f 40/69/3 76/70/3 19/31/3
f 20/71/3 19/31/3 2/40/3
f 7/72/3 40/69/3 20/71/3
f 41/44/9 46/46/9 24/73/9
f 18/74/2 24/4/2 6/75/2
f 18/74/2 17/38/2 41/7/2
f 42/6/2 79/76/2 22/77/2
f 13/78/2 22/77/2 3/79/2
f 6/75/2 42/6/2 13/78/2
f 25/65/3 63/80/3 66/81/3
f 102/82/3 53/83/3 140/84/3
f 44/3/1 7/85/1 26/13/1
f 29/20/1 26/13/1 10/57/1
f 8/86/1 44/3/1 29/20/1
f 30/56/10 48/87/10 45/88/10
f 48/87/4 129/89/4 45/88/4
f 32/33/11 51/90/11 19/31/11
f 129/89/4 49/26/4 45/88/4
f 2/63/1 60/91/1 12/64/1
f 30/56/12 49/26/12 35/22/12
f 109/92/13 48/87/13 34/48/13
f 12/64/2 50/93/2 32/33/2
f 140/94/14 58/95/14 148/96/14
f 60/91/6 51/90/6 50/93/6
f 64/97/15 68/98/15 63/99/15
f 11/100/16 57/101/16 9/102/16
f 103/11/3 52/66/3 39/12/3
f 17/38/11 47/103/11 33/28/11
f 25/65/3 53/83/3 40/69/3
f 16/41/1 56/104/1 1/62/1
f 9/102/3 148/96/3 58/95/3
f 57/101/3 145/105/3 9/102/3
f 66/106/17 61/107/17 67/108/17
f 63/99/18 62/109/18 66/106/18
f 138/110/19 57/101/19 52/111/19
f 56/112/6 47/103/6 54/37/6
f 33/28/3 55/113/3 16/41/3
f 11/100/16 58/95/16 53/114/16
f 64/97/20 61/107/20 65/115/20
f 65/115/3 62/109/3 68/98/3
f 39/12/3 66/81/3 67/116/3
f 14/2/3 67/116/3 64/117/3
f 7/85/3 64/117/3 63/118/3
f 88/119/11 89/120/11 126/121/11
f 99/5/2 98/122/2 124/123/2
f 123/124/2 74/8/2 91/125/2
f 103/11/3 97/126/3 121/127/3
f 94/128/11 104/129/11 120/130/11
f 106/131/11 105/132/11 119/133/11
f 107/134/11 95/135/11 118/136/11
f 117/137/4 80/23/4 108/25/4
f 108/25/21 136/138/21 117/137/21
f 112/30/6 111/139/6 115/140/6
f 113/32/6 93/141/6 114/142/6
f 111/139/6 113/32/6 114/142/6
f 111/139/6 86/143/6 73/144/6
f 143/145/2 69/146/2 91/125/2
f 74/8/6 115/140/6 91/125/6
f 151/147/3 93/141/3 70/148/3
f 90/149/6 111/139/6 73/144/6
f 125/150/22 100/151/22 123/152/22
f 81/153/23 133/154/23 98/155/23
f 78/156/4 116/157/4 95/158/4
f 95/158/4 96/159/4 71/160/4
f 96/159/4 109/92/4 79/53/4
f 72/161/4 117/137/4 89/162/4
f 89/162/4 110/163/4 78/156/4
f 128/164/2 125/150/2 133/154/2
f 83/165/11 118/136/11 105/132/11
f 105/132/11 87/166/11 75/167/11
f 118/136/11 71/168/11 87/166/11
f 73/144/11 119/133/11 90/149/11
f 90/149/11 92/169/11 69/170/11
f 119/133/11 75/167/11 92/169/11
f 70/171/11 120/130/11 86/143/11
f 86/143/11 106/131/11 73/144/11
f 120/130/11 83/165/11 106/131/11
f 101/172/3 141/173/3 121/127/3
f 121/127/3 72/174/3 88/119/3
f 76/70/3 122/175/3 93/141/3
f 93/141/3 94/176/3 70/148/3
f 122/175/3 77/177/3 94/176/3
f 133/154/24 123/152/24 98/155/24
f 98/122/2 92/178/2 75/179/2
f 92/178/2 91/125/2 69/146/2
f 79/76/2 124/123/2 96/180/2
f 96/180/2 87/181/2 71/182/2
f 124/123/2 75/179/2 87/181/2
f 101/172/3 155/183/3 77/177/3
f 102/82/3 142/184/3 122/175/3
f 77/185/11 126/121/11 104/129/11
f 104/129/11 107/134/11 83/165/11
f 126/121/11 78/186/11 107/134/11
f 110/163/25 135/187/25 116/157/25
f 127/188/1 81/189/1 100/190/1
f 135/187/4 129/89/4 131/191/4
f 139/192/1 114/142/1 93/141/1
f 136/138/4 129/89/4 132/193/4
f 152/194/11 70/171/11 86/143/11
f 136/138/25 110/163/25 117/137/25
f 135/187/13 109/92/13 116/157/13
f 137/195/2 86/143/2 114/142/2
f 140/94/14 150/196/14 142/197/14
f 152/194/6 139/192/6 151/147/6
f 160/198/17 156/199/17 155/200/17
f 84/201/26 149/202/26 141/203/26
f 141/173/3 103/11/3 121/127/3
f 134/204/1 91/125/1 115/140/1
f 142/184/3 101/172/3 122/175/3
f 147/205/11 90/149/11 69/170/11
f 148/96/3 82/206/3 150/196/3
f 145/105/3 149/202/3 82/206/3
f 153/207/15 158/208/15 159/209/15
f 154/210/18 155/200/18 158/208/18
f 149/202/19 138/110/19 141/203/19
f 147/211/6 134/204/6 144/212/6
f 144/212/3 115/140/3 90/149/3
f 150/196/26 84/201/26 142/197/26
f 156/199/20 153/207/20 159/209/20
f 154/210/3 157/213/3 160/198/3
f 121/127/3 158/214/3 101/172/3
f 88/119/3 159/215/3 121/127/3
f 77/185/3 156/216/3 88/119/3
f 15/1/1 4/68/1 14/2/1
f 24/4/2 81/217/2 99/5/2
f 41/7/2 17/38/2 74/8/2
f 23/10/3 80/218/3 103/11/3
f 26/13/1 7/85/1 20/14/1
f 27/16/1 10/57/1 28/17/1
f 21/19/1 8/86/1 29/20/1
f 35/22/4 108/25/4 80/23/4
f 108/25/21 35/22/21 49/26/21
f 33/28/6 31/34/6 85/29/6
f 19/31/6 76/70/6 113/32/6
f 31/34/6 32/33/6 113/32/6
f 5/35/6 12/64/6 32/33/6
f 1/36/2 56/112/2 54/37/2
f 33/28/6 112/30/6 74/8/6
f 19/31/3 51/90/3 59/39/3
f 16/41/6 5/35/6 31/34/6
f 100/42/27 127/219/27 43/43/27
f 81/45/28 24/73/28 46/46/28
f 34/48/4 30/56/4 8/49/4
f 22/51/4 34/48/4 21/50/4
f 79/53/4 109/92/4 34/48/4
f 35/22/4 23/24/4 4/54/4
f 30/56/4 35/22/4 15/55/4
f 43/43/2 127/219/2 128/47/2
f 36/21/1 29/20/1 10/57/1
f 13/58/1 36/21/1 27/16/1
f 3/60/1 21/19/1 36/21/1
f 37/18/1 28/17/1 5/35/1
f 18/61/1 37/18/1 16/41/1
f 6/59/1 27/16/1 37/18/1
f 38/15/1 20/14/1 2/63/1
f 28/17/1 38/15/1 12/64/1
f 10/57/1 26/13/1 38/15/1
f 25/65/3 39/12/3 52/66/3
f 4/68/3 23/10/3 39/12/3
f 40/69/3 102/82/3 76/70/3
f 20/71/3 40/69/3 19/31/3
f 7/72/3 25/65/3 40/69/3
f 41/44/9 43/43/9 46/46/9
f 18/74/2 41/7/2 24/4/2
f 18/74/2 1/36/2 17/38/2
f 42/6/2 99/5/2 79/76/2
f 13/78/2 42/6/2 22/77/2
f 6/75/2 24/4/2 42/6/2
f 25/65/3 7/72/3 63/80/3
f 102/82/3 40/69/3 53/83/3
f 44/3/1 14/2/1 7/85/1
f 29/20/1 44/3/1 26/13/1
f 8/86/1 15/1/1 44/3/1
f 30/56/12 34/48/12 48/87/12
f 48/87/4 131/191/4 129/89/4
f 32/33/11 50/93/11 51/90/11
f 129/89/4 130/27/4 49/26/4
f 2/63/1 59/220/1 60/91/1
f 30/56/29 45/88/29 49/26/29
f 109/92/30 131/191/30 48/87/30
f 12/64/2 60/91/2 50/93/2
f 140/94/14 53/114/14 58/95/14
f 60/91/6 59/221/6 51/90/6
f 64/97/15 65/115/15 68/98/15
f 11/100/16 52/111/16 57/101/16
f 103/11/3 138/222/3 52/66/3
f 17/38/11 54/37/11 47/103/11
f 25/65/3 11/67/3 53/83/3
f 16/41/1 55/113/1 56/104/1
f 9/102/3 145/105/3 148/96/3
f 57/101/3 146/223/3 145/105/3
f 66/106/17 62/109/17 61/107/17
f 63/99/18 68/98/18 62/109/18
f 138/110/19 146/223/19 57/101/19
f 56/112/6 55/113/6 47/103/6
f 33/28/3 47/103/3 55/113/3
f 11/100/16 9/102/16 58/95/16
f 64/97/20 67/108/20 61/107/20
f 65/115/3 61/107/3 62/109/3
f 39/12/3 25/65/3 66/81/3
f 14/2/3 39/12/3 67/116/3
f 7/85/3 14/2/3 64/117/3
f 88/119/11 72/174/11 89/120/11
f 99/5/2 81/217/2 98/122/2
f 123/124/2 100/9/2 74/8/2
f 103/11/3 80/218/3 97/126/3
f 94/128/11 77/185/11 104/129/11
f 106/131/11 83/165/11 105/132/11
f 107/134/11 78/186/11 95/135/11
f 117/137/4 97/224/4 80/23/4
f 108/25/31 130/27/31 136/138/31
f 112/30/6 85/29/6 111/139/6
f 113/32/6 76/70/6 93/141/6
f 111/139/6 85/29/6 113/32/6
f 111/139/6 114/142/6 86/143/6
f 143/145/2 147/211/2 69/146/2
f 74/8/6 112/30/6 115/140/6
f 151/147/3 139/192/3 93/141/3
f 90/149/6 115/140/6 111/139/6
f 125/150/27 127/225/27 100/151/27
f 81/153/8 128/164/8 133/154/8
f 78/156/4 110/163/4 116/157/4
f 95/158/4 116/157/4 96/159/4
f 96/159/4 116/157/4 109/92/4
f 72/161/4 97/224/4 117/137/4
f 89/162/4 117/137/4 110/163/4
f 128/164/2 127/225/2 125/150/2
f 83/165/11 107/134/11 118/136/11
f 105/132/11 118/136/11 87/166/11
f 118/136/11 95/135/11 71/168/11
f 73/144/11 106/131/11 119/133/11
f 90/149/11 119/133/11 92/169/11
f 119/133/11 105/132/11 75/167/11
f 70/171/11 94/128/11 120/130/11
f 86/143/11 120/130/11 106/131/11
f 120/130/11 104/129/11 83/165/11
f 101/172/3 84/226/3 141/173/3
f 121/127/3 97/126/3 72/174/3
f 76/70/3 102/82/3 122/175/3
f 93/141/3 122/175/3 94/176/3
f 122/175/3 101/172/3 77/177/3
f 133/154/24 125/150/24 123/152/24
f 98/122/2 123/124/2 92/178/2
f 92/178/2 123/124/2 91/125/2
f 79/76/2 99/5/2 124/123/2
f 96/180/2 124/123/2 87/181/2
f 124/123/2 98/122/2 75/179/2
f 101/172/3 158/214/3 155/183/3
f 102/82/3 140/84/3 142/184/3
f 77/185/11 88/119/11 126/121/11
f 104/129/11 126/121/11 107/134/11
f 126/121/11 89/120/11 78/186/11
f 110/163/32 132/193/32 135/187/32
f 127/188/1 128/227/1 81/189/1
f 135/187/4 132/193/4 129/89/4
f 139/192/1 137/195/1 114/142/1
f 136/138/4 130/27/4 129/89/4
f 152/194/11 151/228/11 70/171/11
f 136/138/33 132/193/33 110/163/33
f 135/187/34 131/191/34 109/92/34
f 137/195/2 152/194/2 86/143/2
f 140/94/14 148/96/14 150/196/14
f 152/194/6 137/195/6 139/192/6
f 160/198/17 157/213/17 156/199/17
f 84/201/26 82/206/26 149/202/26
f 141/173/3 138/222/3 103/11/3
f 134/204/1 143/145/1 91/125/1
f 142/184/3 84/226/3 101/172/3
f 147/205/11 144/212/11 90/149/11
f 148/96/3 145/105/3 82/206/3
f 145/105/3 146/223/3 149/202/3
f 153/207/15 154/210/15 158/208/15
f 154/210/18 160/198/18 155/200/18
f 149/202/19 146/223/19 138/110/19
f 147/211/6 143/145/6 134/204/6
f 144/212/3 134/204/3 115/140/3
f 150/196/26 82/206/26 84/201/26
f 156/199/20 157/213/20 153/207/20
f 154/210/3 153/207/3 157/213/3
f 121/127/3 159/215/3 158/214/3
f 88/119/3 156/216/3 159/215/3
f 77/185/3 155/229/3 156/216/3
