# Blender v2.79 (sub 0) OBJ File: ''
# www.blender.org
mtllib explo.mtl
o Plane
v -1.000000 0.000000 -0.333333
v -1.000000 0.000000 0.333333
v -0.333333 0.000000 1.000000
v 0.333333 0.000000 1.000000
v 1.000000 0.000000 0.333333
v 1.000000 0.000000 -0.333333
v 0.333333 0.000000 -1.000000
v -0.333333 0.000000 -1.000000
v -0.333333 0.000000 0.333333
v -0.333333 0.000000 -0.333333
v 0.333333 0.000000 0.333333
v 0.333333 0.000000 -0.333333
vt 0.500000 0.749950
vt 0.000100 0.749950
vt 0.250050 0.500000
vt 0.500000 0.250050
vt 0.000100 0.250050
vt 0.250050 0.000100
vt 0.999900 0.250050
vt 0.749950 0.000100
vt 0.749950 0.500000
vt 0.999900 0.749950
vt 0.250050 0.999900
vt 0.749950 0.999900
vn 0.0000 1.0000 0.0000
usemtl None
s off
f 12/1/1 8/2/1 10/3/1
f 9/4/1 1/5/1 2/6/1
f 4/7/1 9/4/1 3/8/1
f 11/9/1 10/3/1 9/4/1
f 5/10/1 12/1/1 11/9/1
f 12/1/1 7/11/1 8/2/1
f 9/4/1 10/3/1 1/5/1
f 4/7/1 11/9/1 9/4/1
f 11/9/1 12/1/1 10/3/1
f 5/10/1 6/12/1 12/1/1
