# Blender v2.79 (sub 0) OBJ File: 'enemy3.blend'
# www.blender.org
mtllib enemy3.mtl
o Cube
v 0.029451 -0.029497 -0.021902
v 0.029451 -0.029497 0.021902
v 0.018500 0.037000 0.000000
v 0.043927 -0.044692 -0.045814
v 0.043927 -0.044692 0.045814
v 0.035974 -0.078666 -0.029225
v 0.035974 -0.078666 0.029225
v 0.017987 -0.078666 -0.007422
v 0.017987 -0.078666 -0.029225
v 0.017987 -0.078666 0.029225
v 0.035974 -0.078666 0.007233
v 0.017987 -0.078666 0.007233
v 0.035974 -0.078666 -0.007422
v 0.019508 -0.078666 -0.006183
v 0.034454 -0.078666 0.005994
v 0.019508 -0.078666 0.005994
v 0.034454 -0.078666 -0.006183
v 0.022295 -0.107228 -0.003912
v 0.031667 -0.107228 0.003723
v 0.022295 -0.107228 0.003723
v 0.031667 -0.107228 -0.003912
v 0.014726 -0.029497 0.021902
v 0.021964 -0.044692 0.045814
v 0.001608 -0.028123 0.023999
v 0.001608 -0.040654 0.043717
v 0.013752 -0.028123 0.023999
v 0.019721 -0.040654 0.043717
v -0.029451 -0.029497 -0.021902
v -0.029451 -0.029497 0.021902
v -0.018500 0.037000 0.000000
v 0.000000 -0.029497 -0.021902
v 0.000000 -0.029497 0.021902
v -0.043927 -0.044692 -0.045814
v -0.043927 -0.044692 0.045814
v 0.000000 -0.044692 -0.045814
v 0.000000 -0.044692 0.045814
v -0.035974 -0.078666 -0.029225
v -0.035974 -0.078666 0.029225
v 0.000000 -0.078666 -0.029225
v 0.000000 -0.078666 0.029225
v -0.017987 -0.078666 -0.007422
v -0.017987 -0.078666 -0.029225
v -0.017987 -0.078666 0.029225
v -0.035974 -0.078666 0.007233
v -0.017987 -0.078666 0.007233
v -0.035974 -0.078666 -0.007422
v -0.019508 -0.078666 -0.006183
v -0.034454 -0.078666 0.005994
v -0.019508 -0.078666 0.005994
v -0.034454 -0.078666 -0.006183
v -0.022295 -0.107228 -0.003912
v -0.031667 -0.107228 0.003723
v -0.022295 -0.107228 0.003723
v -0.031667 -0.107228 -0.003912
v -0.014726 -0.029497 0.021902
v -0.021964 -0.044692 0.045814
v -0.001608 -0.028123 0.023999
v -0.001608 -0.040654 0.043717
v -0.013752 -0.028123 0.023999
v -0.019721 -0.040654 0.043717
vt 0.413581 0.357002
vt 0.354047 0.268973
vt 0.423527 0.180340
vt 0.281472 0.360396
vt 0.349750 0.170826
vt 0.491367 0.472248
vt 0.281472 0.488991
vt 0.281472 0.164294
vt 0.815349 0.267750
vt 0.988574 0.182287
vt 0.884982 0.267750
vt 0.440018 0.965221
vt 0.344350 0.818897
vt 0.507782 0.767970
vt 0.280429 0.861370
vt 0.340641 0.866458
vt 0.815349 0.353213
vt 0.710859 0.267750
vt 0.884982 0.353213
vt 0.988574 0.267750
vt 0.988574 0.353213
vt 0.879095 0.274976
vt 0.053950 0.859452
vt 0.184685 0.812023
vt 0.191267 0.855856
vt 0.965857 0.663647
vt 0.819920 0.656031
vt 0.950813 0.647396
vt 0.701779 0.624681
vt 0.620502 0.727269
vt 0.541636 0.630014
vt 0.821237 0.274976
vt 0.821236 0.345987
vt 0.879095 0.345987
vt 0.621566 0.726139
vt 0.621654 0.728546
vt 0.701779 0.824842
vt 0.541373 0.830024
vt 0.622718 0.727348
vt 0.418487 0.038930
vt 0.521442 0.065419
vt 0.946030 0.581407
vt 0.815354 0.549668
vt 0.791090 0.674403
vt 0.961690 0.568437
vt 0.788218 0.527833
vt 0.149362 0.357001
vt 0.139417 0.180339
vt 0.208897 0.268973
vt 0.213194 0.170826
vt 0.071577 0.472247
vt 0.710859 0.182287
vt 0.815349 0.096825
vt 0.350396 0.766799
vt 0.346168 0.711714
vt 0.449167 0.562700
vt 0.282558 0.661472
vt 0.240847 0.664546
vt 0.710859 0.011362
vt 0.815349 0.011362
vt 0.988574 0.096825
vt 0.884982 0.011362
vt 0.988574 0.011362
vt 0.879095 0.089599
vt 0.884982 0.096825
vt 0.187114 0.710586
vt 0.040358 0.758089
vt 0.058206 0.657766
vt 0.967195 0.714507
vt 0.821272 0.722382
vt 0.792409 0.704062
vt 0.695710 0.337786
vt 0.615107 0.444117
vt 0.517050 0.322033
vt 0.821237 0.089599
vt 0.879095 0.018588
vt 0.597653 0.437562
vt 0.604741 0.450516
vt 0.517050 0.543894
vt 0.608019 0.431163
vt 0.695710 0.559646
vt 0.144458 0.038930
vt 0.947514 0.796783
vt 0.952180 0.730785
vt 0.816895 0.828754
vt 0.789798 0.850637
vt 0.963197 0.809725
vt 0.104365 0.956602
vt 0.237077 0.857846
vt 0.710859 0.353213
vt 0.184598 0.760742
vt 0.041503 0.065418
vt 0.710859 0.096825
vt 0.344083 0.658117
vt 0.196422 0.666154
vt 0.111383 0.562700
vt 0.821237 0.018588
vn 0.9867 0.1625 0.0000
vn 0.0000 0.3128 -0.9498
vn 0.0000 0.3128 0.9498
vn 0.7240 0.6898 0.0000
vn 0.0000 0.8440 -0.5363
vn -0.9634 0.2680 0.0000
vn 0.0000 -1.0000 0.0000
vn 0.0000 -0.4388 -0.8986
vn 0.9737 -0.2279 0.0000
vn 0.0000 -0.4388 0.8986
vn -0.8176 0.4860 0.3088
vn 0.9953 -0.0971 0.0000
vn -0.0000 -0.0793 0.9969
vn -0.9953 -0.0971 0.0000
vn 0.0000 -0.0793 -0.9969
vn 0.0000 0.8440 0.5363
vn -0.0000 0.4608 0.8875
vn 0.0000 0.8365 -0.5480
vn 0.8578 0.5099 0.0644
vn -0.9867 0.1625 0.0000
vn -0.7240 0.6898 0.0000
vn 0.9634 0.2680 0.0000
vn -0.9737 -0.2279 0.0000
vn 0.8176 0.4860 0.3088
vn -0.8578 0.5099 0.0644
usemtl Material
s off
f 1/1/1 3/2/1 2/3/1
f 3/2/2 1/1/2 31/4/2
f 3/2/3 22/5/3 2/3/3
f 2/3/4 4/6/4 1/1/4
f 1/1/5 35/7/5 31/4/5
f 3/2/6 31/4/6 32/8/6
f 12/9/7 39/10/7 8/11/7
f 4/12/8 9/13/8 35/14/8
f 13/15/9 6/16/9 4/12/9
f 11/17/7 10/18/7 12/9/7
f 13/19/7 9/20/7 6/21/7
f 13/19/7 14/22/7 8/11/7
f 23/23/10 10/24/10 7/25/10
f 32/26/11 25/27/11 24/28/11
f 15/29/12 21/30/12 17/31/12
f 11/17/7 16/32/7 15/33/7
f 11/17/7 17/34/7 13/19/7
f 8/11/7 16/32/7 12/9/7
f 19/35/7 18/36/7 21/30/7
f 16/37/13 19/35/13 15/29/13
f 14/38/14 20/39/14 16/37/14
f 17/31/15 18/36/15 14/38/15
f 2/3/16 23/40/16 5/41/16
f 26/42/16 25/27/16 27/43/16
f 36/44/17 27/43/17 25/27/17
f 22/45/18 24/28/18 26/42/18
f 22/45/19 27/43/19 23/46/19
f 28/47/20 29/48/20 30/49/20
f 30/49/2 31/4/2 28/47/2
f 55/50/3 30/49/3 29/48/3
f 33/51/21 29/48/21 28/47/21
f 35/7/5 28/47/5 31/4/5
f 30/49/22 32/8/22 31/4/22
f 39/10/7 40/52/7 45/53/7
f 39/54/8 42/55/8 35/14/8
f 33/56/23 46/57/23 44/58/23
f 45/53/7 38/59/7 44/60/7
f 42/61/7 46/62/7 37/63/7
f 47/64/7 46/62/7 41/65/7
f 43/66/10 36/67/10 56/68/10
f 32/69/24 58/70/24 36/71/24
f 50/72/14 52/73/14 48/74/14
f 44/60/7 49/75/7 45/53/7
f 50/76/7 44/60/7 46/62/7
f 49/75/7 41/65/7 45/53/7
f 51/77/7 52/73/7 54/78/7
f 52/73/13 49/79/13 48/74/13
f 53/80/12 47/81/12 49/79/12
f 51/77/15 50/72/15 47/81/15
f 29/48/16 56/82/16 55/50/16
f 59/83/16 58/70/16 57/84/16
f 36/71/17 60/85/17 56/86/17
f 55/87/18 57/84/18 32/69/18
f 60/85/25 55/87/25 56/86/25
f 3/2/3 32/8/3 22/5/3
f 2/3/4 5/41/4 4/6/4
f 1/1/5 4/6/5 35/7/5
f 9/20/7 8/11/7 39/10/7
f 12/9/7 10/18/7 40/52/7
f 40/52/7 39/10/7 12/9/7
f 39/54/8 35/14/8 9/13/8
f 4/12/8 6/16/8 9/13/8
f 4/12/9 5/88/9 11/89/9
f 11/89/9 13/15/9 4/12/9
f 5/88/9 7/25/9 11/89/9
f 11/17/7 7/90/7 10/18/7
f 13/19/7 8/11/7 9/20/7
f 13/19/7 17/34/7 14/22/7
f 7/25/10 5/88/10 23/23/10
f 23/23/10 36/67/10 10/24/10
f 40/91/10 10/24/10 36/67/10
f 32/26/11 36/44/11 25/27/11
f 15/29/12 19/35/12 21/30/12
f 11/17/7 12/9/7 16/32/7
f 11/17/7 15/33/7 17/34/7
f 8/11/7 14/22/7 16/32/7
f 19/35/7 20/39/7 18/36/7
f 16/37/13 20/39/13 19/35/13
f 14/38/14 18/36/14 20/39/14
f 17/31/15 21/30/15 18/36/15
f 2/3/16 22/5/16 23/40/16
f 26/42/16 24/28/16 25/27/16
f 36/44/17 23/46/17 27/43/17
f 22/45/18 32/26/18 24/28/18
f 22/45/19 26/42/19 27/43/19
f 55/50/3 32/8/3 30/49/3
f 33/51/21 34/92/21 29/48/21
f 35/7/5 33/51/5 28/47/5
f 45/53/7 41/65/7 39/10/7
f 42/61/7 39/10/7 41/65/7
f 40/52/7 43/93/7 45/53/7
f 33/56/8 35/14/8 42/55/8
f 42/55/8 37/94/8 33/56/8
f 38/95/23 34/96/23 44/58/23
f 33/56/23 37/94/23 46/57/23
f 44/58/23 34/96/23 33/56/23
f 45/53/7 43/93/7 38/59/7
f 42/61/7 41/65/7 46/62/7
f 47/64/7 50/76/7 46/62/7
f 56/68/10 34/96/10 38/95/10
f 38/95/10 43/66/10 56/68/10
f 40/91/10 36/67/10 43/66/10
f 32/69/24 57/84/24 58/70/24
f 50/72/14 54/78/14 52/73/14
f 44/60/7 48/97/7 49/75/7
f 50/76/7 48/97/7 44/60/7
f 49/75/7 47/64/7 41/65/7
f 51/77/7 53/80/7 52/73/7
f 52/73/13 53/80/13 49/79/13
f 53/80/12 51/77/12 47/81/12
f 51/77/15 54/78/15 50/72/15
f 29/48/16 34/92/16 56/82/16
f 59/83/16 60/85/16 58/70/16
f 36/71/17 58/70/17 60/85/17
f 55/87/18 59/83/18 57/84/18
f 60/85/25 59/83/25 55/87/25
